<?xml version="1.0" encoding="UTF-8" standalone="no"?>
<!-- Created with Inkscape (http://www.inkscape.org/) -->

<svg
   width="169.08505mm"
   height="178.23836mm"
   viewBox="0 0 169.08505 178.23836"
   version="1.1"
   id="svg1"
   xml:space="preserve"
   inkscape:version="1.3 (0e150ed6c4, 2023-07-21)"
   sodipodi:docname="factory.svg"
   xmlns:inkscape="http://www.inkscape.org/namespaces/inkscape"
   xmlns:sodipodi="http://sodipodi.sourceforge.net/DTD/sodipodi-0.dtd"
   xmlns="http://www.w3.org/2000/svg"
   xmlns:svg="http://www.w3.org/2000/svg"><sodipodi:namedview
     id="namedview1"
     pagecolor="#ffffff"
     bordercolor="#000000"
     borderopacity="0.25"
     inkscape:showpageshadow="2"
     inkscape:pageopacity="0.0"
     inkscape:pagecheckerboard="0"
     inkscape:deskcolor="#d1d1d1"
     inkscape:document-units="mm"
     inkscape:zoom="0.69219276"
     inkscape:cx="320.71991"
     inkscape:cy="419.68078"
     inkscape:window-width="1920"
     inkscape:window-height="991"
     inkscape:window-x="-9"
     inkscape:window-y="-9"
     inkscape:window-maximized="1"
     inkscape:current-layer="layer1" /><defs
     id="defs1" /><g
     inkscape:label="Layer 1"
     inkscape:groupmode="layer"
     id="layer1"
     transform="translate(-20.382184,-37.402056)"><path
       style="fill:#ffffff;fill-opacity:1"
       d="m 20.382184,210.59265 v -5.04776 h 9.017869 9.017869 v 5.04776 5.04777 H 29.400053 20.382184 Z M 44.80558,196.1456 v -19.49482 h 24.79914 24.79914 v 19.49482 19.49482 H 69.60472 44.80558 Z m 55.98593,14.44705 v -5.04776 h 44.33786 44.33786 v 5.04776 5.04777 H 145.12937 100.79151 Z M 20.382184,168.88741 V 138.148 l 1.596914,-0.71658 c 8.168308,-3.66531 53.350181,-22.78047 53.505443,-22.63662 0.111282,0.1031 -0.262975,6.45473 -0.831682,14.11473 -0.980729,13.20958 -1.000889,13.97412 -0.391214,14.8362 0.910222,1.28705 2.23556,1.6794 3.721364,1.10167 0.930944,-0.36199 41.716381,-22.59957 52.492321,-28.62057 1.13663,-0.63508 2.10385,-1.04596 2.14937,-0.91306 0.0455,0.1329 -0.30379,6.27284 -0.77627,13.64432 -0.57831,9.02268 -0.74235,13.72747 -0.50197,14.3965 0.43234,1.20332 2.2071,1.99984 3.6079,1.61925 0.5331,-0.14484 12.70687,-6.79267 27.05282,-14.77297 14.34595,-7.98029 26.39326,-14.66319 26.7718,-14.85089 0.66541,-0.32993 0.68825,1.06248 0.68825,41.96779 v 42.30905 h -44.33786 -44.33786 v -12.82856 c 0,-8.49108 -0.14081,-13.20281 -0.41648,-13.93545 -0.830866,-2.20822 0.29752,-2.1301 -30.77031,-2.1301 -30.770177,0 -30.005443,-0.0485 -30.827196,1.954 -0.205725,0.50132 -0.359602,6.45276 -0.359602,13.9082 v 13.03191 h -9.017869 -9.017869 z m 95.780586,22.57496 c 1.76126,-0.84382 1.97231,-1.88025 1.84285,-9.04972 l -0.11773,-6.51987 -1.05425,-0.83943 c -1.37787,-1.0971 -3.0292,-1.09122 -4.22325,0.0151 -0.91718,0.84975 -0.92228,0.89266 -0.92228,7.75528 0,7.3936 0.16336,8.10776 2.01286,8.79925 1.1227,0.41976 1.27066,0.41011 2.4618,-0.16057 z m 12.71565,-0.62509 c 0.82324,-0.71194 0.84542,-0.91717 0.84542,-7.82276 0,-7.06523 -0.003,-7.09482 -0.92228,-7.94611 -1.19413,-1.10635 -2.84542,-1.11218 -4.22325,-0.0149 l -1.05425,0.83957 -0.12409,6.06896 c -0.0765,3.74422 0.0364,6.62118 0.29491,7.51059 0.70599,2.4291 3.19497,3.08437 5.18354,1.36466 z m 12.02382,-0.12009 c 0.81354,-0.84354 0.84543,-1.12478 0.84543,-7.45513 0,-7.00553 -0.20262,-8.00844 -1.74996,-8.66163 -1.4635,-0.61779 -2.36487,-0.45707 -3.53937,0.63108 l -1.09833,1.01759 v 6.73769 c 0,5.62502 0.0997,6.86959 0.60382,7.5364 1.24444,1.64607 3.45428,1.73288 4.93841,0.194 z m 10.99476,0.72674 c 1.67475,-0.80238 1.95723,-2.25836 1.81298,-9.34433 l -0.12636,-6.20653 -1.05425,-0.83957 c -1.37783,-1.09727 -3.02912,-1.09144 -4.22325,0.0149 -0.91885,0.85129 -0.92228,0.88088 -0.92228,7.94611 0,6.91107 0.0215,7.10979 0.84542,7.80426 0.79466,0.66983 1.58262,1.05871 2.27313,1.12187 0.16526,0.0151 0.79283,-0.20841 1.39461,-0.49672 z m 12.67715,-0.72674 c 0.81699,-0.84713 0.84543,-1.11066 0.84543,-7.83626 v -6.95964 l -0.99423,-0.85368 c -1.26536,-1.08648 -2.79807,-1.09175 -4.15131,-0.0143 l -1.05425,0.83943 -0.11773,6.51987 c -0.1282,7.0999 0.0828,8.17974 1.76652,9.04162 1.25989,0.64491 2.6369,0.37101 3.70557,-0.73708 z m 10.81316,0.83505 c 1.81464,-0.76602 2.05659,-1.77265 2.05055,-8.53095 -0.006,-6.65824 -0.20338,-7.53052 -1.90465,-8.41522 -1.1447,-0.59527 -2.67105,-0.32515 -3.73553,0.66107 -0.68873,0.6381 -0.74194,1.18112 -0.74194,7.57237 0,7.37648 0.16402,8.09218 2.01287,8.78343 1.09243,0.40845 1.19074,0.40545 2.3187,-0.0707 z M 80.501312,136.18697 c 0,-0.2683 0.421928,-6.03842 0.937617,-12.82248 1.177452,-15.48977 1.191161,-14.41935 -0.201182,-15.70933 -1.477678,-1.36905 -1.697503,-1.32288 -9.321881,1.95778 -3.368492,1.44942 -6.300228,2.63531 -6.514969,2.63531 -0.242234,0 -0.309638,-0.56161 -0.177574,-1.47952 0.117076,-0.81374 0.325801,-3.79018 0.463834,-6.61432 l 0.250969,-5.134794 h 12.917761 c 12.375089,0 12.917762,0.0274 12.917762,0.652 0,0.358604 0.507255,6.801364 1.127233,14.317234 0.619979,7.51588 1.1244,14.07613 1.120937,14.57833 -0.0056,0.81163 -0.717468,1.29994 -6.406073,4.39431 -7.259519,3.94888 -7.114434,3.88311 -7.114434,3.22548 z m 57.345008,-1.88957 c 0.70756,-8.69795 1.519,-25.10044 1.27156,-25.7034 -0.40145,-0.97828 -1.16839,-1.52359 -2.47857,-1.76232 -0.90304,-0.16454 -2.08588,0.35088 -6.85276,2.98606 -3.16873,1.75171 -5.8257,3.12529 -5.90437,3.0524 -0.0787,-0.0729 0.31582,-7.64457 0.87665,-16.825964 l 1.0197,-16.69344 15.28793,-0.0909 15.28794,-0.0909 0.20946,1.4834 c 0.16785,1.18878 3.59529,42.666834 3.59529,43.509354 0,0.23072 -20.79928,11.90908 -21.91954,12.30736 -0.50773,0.18051 -0.56079,-0.11249 -0.39329,-2.17161 z M 66.390311,91.447966 c 0.106246,-0.90947 0.298181,-3.65093 0.426521,-6.09213 l 0.233346,-4.43855 h 11.556289 11.55629 l 0.229797,2.34982 c 0.126388,1.2924 0.344657,4.03386 0.485041,6.09213 l 0.255245,3.74231 H 78.664988 66.197136 Z m 1.122453,-18.45045 c 0.109904,-1.10094 0.304066,-3.8424 0.431469,-6.09214 l 0.231642,-4.09043 h 10.24402 10.24402 l 0.227073,2.17576 c 0.12489,1.19667 0.34139,3.93813 0.481112,6.09214 l 0.254038,3.91637 H 78.469537 67.312936 Z m 58.797336,0.46348 c -0.11835,-0.10965 0.32787,-8.85226 0.75216,-14.73648 0.0245,-0.33976 3.07911,-0.43515 13.93392,-0.43515 h 13.90255 l 0.008,0.95734 c 0.004,0.52653 0.25326,3.77712 0.55297,7.22352 0.2997,3.44641 0.5497,6.46201 0.55556,6.70135 0.008,0.34091 -3.19003,0.43515 -14.76864,0.43515 -8.12861,0 -14.85007,-0.0656 -14.93658,-0.14573 z m 1.29732,-25.00607 c 0.13475,-2.154 0.35098,-5.52208 0.4805,-7.48462 l 0.2355,-3.56825 h 12.32126 12.32125 l 0.2158,1.82764 c 0.29248,2.47706 0.96551,10.95821 0.96551,12.16682 v 0.97478 h -13.39241 -13.39241 z"
       id="path1" /></g></svg>
