<?xml version="1.0" encoding="UTF-8" standalone="no"?>
<!-- Created with Inkscape (http://www.inkscape.org/) -->

<svg
   width="135.43391mm"
   height="135.38942mm"
   viewBox="0 0 135.43391 135.38942"
   version="1.1"
   id="svg1"
   xml:space="preserve"
   inkscape:version="1.3 (0e150ed6c4, 2023-07-21)"
   sodipodi:docname="sandbox.svg"
   xmlns:inkscape="http://www.inkscape.org/namespaces/inkscape"
   xmlns:sodipodi="http://sodipodi.sourceforge.net/DTD/sodipodi-0.dtd"
   xmlns="http://www.w3.org/2000/svg"
   xmlns:svg="http://www.w3.org/2000/svg"><sodipodi:namedview
     id="namedview1"
     pagecolor="#ffffff"
     bordercolor="#000000"
     borderopacity="0.25"
     inkscape:showpageshadow="2"
     inkscape:pageopacity="0.0"
     inkscape:pagecheckerboard="0"
     inkscape:deskcolor="#d1d1d1"
     inkscape:document-units="mm"
     inkscape:zoom="1.0128998"
     inkscape:cx="256.68876"
     inkscape:cy="256.19513"
     inkscape:window-width="2560"
     inkscape:window-height="1351"
     inkscape:window-x="2551"
     inkscape:window-y="-9"
     inkscape:window-maximized="1"
     inkscape:current-layer="layer1" /><defs
     id="defs1" /><g
     inkscape:label="Layer 1"
     inkscape:groupmode="layer"
     id="layer1"
     transform="translate(-37.176727,-80.843909)"><path
       style="fill:#eaeaea;fill-opacity:1"
       d="m 39.265031,215.74347 c -0.502369,-0.26943 -1.155355,-0.81368 -1.45108,-1.20946 -0.505738,-0.67684 -0.541946,-1.15467 -0.609463,-8.04295 -0.06807,-6.94457 -0.04424,-7.36796 0.460603,-8.18567 0.292811,-0.47427 0.920425,-1.0989 1.394698,-1.38807 0.854254,-0.52085 1.469144,-0.52577 65.786291,-0.52675 64.92397,-9.9e-4 64.92397,-9.9e-4 65.82332,0.55484 0.49465,0.30571 1.13378,1.01534 1.4203,1.57696 0.47744,0.93587 0.52094,1.57839 0.52094,7.69501 0,6.13322 -0.0429,6.76244 -0.52919,7.76704 -0.33727,0.6967 -0.90209,1.30274 -1.55738,1.67104 -1.02819,0.57787 -1.02819,0.57787 -65.68691,0.57787 -62.424083,0 -64.690297,-0.0169 -65.572129,-0.48986 z m 9.25603,-27.50653 c 0,-0.11833 0.495267,-1.04106 1.100594,-2.05052 4.669957,-7.78774 11.718047,-13.81648 19.007738,-16.25868 8.349925,-2.7974 20.065409,-0.99449 34.389037,5.29219 1.81365,0.79602 1.81365,0.79602 4.01908,-0.15353 5.93428,-2.55502 12.40307,-4.64041 17.73991,-5.71894 2.47934,-0.50106 3.79489,-0.60077 7.74884,-0.58732 4.37874,0.0149 4.95438,0.0736 7.14375,0.72875 8.12225,2.43039 15.27399,8.27357 20.34045,16.61873 0.6727,1.10803 1.22309,2.08882 1.22309,2.17953 0,0.0907 -25.36031,0.16493 -56.35624,0.16493 -30.995938,0 -56.356249,-0.0968 -56.356249,-0.21514 z M 156.86793,170.29025 c -2.13215,-1.9733 -6.0841,-4.57703 -9.13956,-6.02158 -7.73992,-3.65925 -14.83459,-4.38536 -24.54283,-2.51187 -1.51565,0.2925 -2.8054,0.48215 -2.86609,0.42145 -0.0607,-0.0607 0.66681,-3.0143 1.61668,-6.56357 1.87613,-7.01033 2.92221,-9.55229 5.02082,-12.20046 3.39037,-4.27821 8.65563,-6.99721 14.4912,-7.48331 2.24615,-0.1871 2.24615,-0.1871 8.28562,-22.71473 3.32171,-12.3902 6.08631,-22.769468 6.14357,-23.065041 0.0912,-0.470734 -0.14977,-0.600623 -1.94222,-1.046975 -2.42158,-0.603015 -3.51439,-1.26801 -4.14438,-2.521935 -1.2669,-2.521607 0.30012,-5.45158 3.06646,-5.733597 1.63408,-0.166587 17.42248,4.123779 18.34445,4.984951 1.07856,1.007438 1.48122,2.025776 1.34824,3.409766 -0.15848,1.649254 -0.9811,2.749297 -2.48564,3.323886 -1.18331,0.451912 -1.28271,0.448616 -3.61335,-0.119787 -1.31811,-0.321465 -2.4812,-0.491539 -2.58466,-0.377942 -0.10345,0.113596 -2.89779,10.326854 -6.20964,22.696124 -3.31185,12.36927 -6.06955,22.66817 -6.12823,22.88645 -0.0696,0.25884 0.3343,0.62464 1.16123,1.05174 0.69735,0.36017 2.40329,1.78892 3.79097,3.175 2.05162,2.04924 2.73229,2.94036 3.6428,4.7691 1.71437,3.44326 2.25804,6.00947 2.09774,9.90153 -0.11458,2.78207 -0.30838,3.84552 -1.49846,8.22242 -0.75178,2.7649 -1.48474,5.47357 -1.62881,6.01927 -0.14406,0.54571 -0.34664,0.98682 -0.45017,0.98026 -0.10353,-0.007 -0.90261,-0.67308 -1.77574,-1.48115 z m -99.351036,-4.08194 c 0,-0.30165 -3.356068,-19.81038 -3.581154,-20.81716 -0.127889,-0.57203 -0.244137,-0.59536 -2.972324,-0.59631 -2.366264,-8.2e-4 -2.982877,-0.0886 -3.701544,-0.52674 -2.647175,-1.61401 -2.52973,-5.57179 0.20613,-6.94633 0.67792,-0.3406 1.566253,-0.46272 3.368163,-0.46302 2.447396,-4.2e-4 2.447396,-4.2e-4 2.447396,-1.33449 0,-1.82882 0.690089,-5.02854 1.580253,-7.32712 2.163885,-5.58758 7.077009,-10.72425 12.589164,-13.16199 4.270732,-1.88872 9.832083,-2.46833 14.469133,-1.508 10.107788,2.09334 18.034272,11.0015 18.886969,21.22608 0.17556,2.1051 0.17556,2.1051 2.54493,2.1051 1.63798,0 2.64875,0.13258 3.27446,0.4295 2.63163,1.24879 2.93113,5.07381 0.53132,6.78561 -0.70469,0.50266 -1.27564,0.60971 -3.85305,0.72239 -3.02577,0.1323 -3.02577,0.1323 -4.724497,9.78959 -0.934299,5.31151 -1.728054,9.68936 -1.763901,9.72856 -0.03585,0.0392 -1.535503,-0.35193 -3.33257,-0.86918 -4.520719,-1.3012 -9.05035,-2.18114 -13.071343,-2.53927 -7.260646,-0.64667 -14.368738,0.91533 -20.838899,4.57936 -1.942793,1.1002 -2.058636,1.14091 -2.058636,0.72342 z m 35.288941,-30.60675 c -0.854746,-6.92597 -5.133845,-12.07848 -11.608734,-13.9782 -1.024371,-0.30055 -2.479122,-0.46577 -4.101042,-0.46577 -6.840747,0 -12.671224,4.13478 -14.84796,10.52968 -0.398454,1.1706 -0.806261,2.81297 -0.906237,3.64971 -0.181774,1.52135 -0.181774,1.52135 15.71865,1.52135 15.900423,0 15.900423,0 15.745323,-1.25677 z"
       id="path1" /></g></svg>
